<?xml version="1.0" encoding="UTF-8"?>
<svg xmlns="http://www.w3.org/2000/svg" id="Layer_2" data-name="Layer 2" viewBox="0 0 716.86 254.05">
  <defs>
    <style>
      .cls-1 {
        fill: #faa51a;
      }

      .cls-1, .cls-2 {
        fill-rule: evenodd;
        stroke-width: 0px;
      }

      .cls-2 {
        fill: #2c2a29;
      }
    </style>
  </defs>
  <g id="Layer_1-2" data-name="Layer 1">
    <g>
      <path class="cls-2" d="m527.26,186.1c-1.28,4.39-2.59,8.86-3.92,13.41-.81,2.78,1.89,6.81,5.75,7.7,4.16.96,8.4,1.87,12.81,2.19,11.73.86,23.3,1.55,34.72,1.96,4.38.16,8.52-1.56,11.43-5.06,1.22-1.46,2.2-1.93,4.28-1.67,9.13,1.16,18.19,2.19,27.19,2.86,6.23.46,12.43-.86,18.55-2.2.09.13.28.29.3.46.3,3.09,1.99,4.72,5.52,4.52,3.54-.22,7.09-.11,10.54-.63,1.63-.25,3.12-1.62,4.7-2.49-.47,2.99-.71,6.34-1.59,9.61-1.47,5.48-3.24-.97-5.15,4.69-.31.91-1.34,2.02-2.24,2.33-4.25,1.46-8.63,2.7-13.05,4-.3.09-.76,0-.98-.18-1.58-1.35-3.46-1.27-5.62-1.06-6.2.59-12.49,1.02-18.83,1.28-12.09.49-24.44.8-37.12,1.23-2.71.09-5.45.28-8.21.48-3.48.26-6.06,2.37-8.62,4.76-.71.66-1.99,1.34-2.84,1.34-14.27.03-28.77-.26-43.11-1.91-4.14-.48-12.46-.72-16.72-1.06,8.27-7.39,22.54-34.46,29.4-50.29,3.29.66,3.59,1.08,2.8,3.76h0Zm-4.32-43.86c-2.36,13.64-3.85,19.71-5.93,24.65-5.03-4.73-10.56-8.79-16.49-12.18-5.01-6.83-14.45-8.69-24.41-9.62-7.61-1.83-15.58-2.77-23.76-2.8-4.05-.92,15.2.25.68-1.17,34.03-.66,32.72-2.74,42.65,1.02,11.69,4.43,21.06,11.65,24.35-32.8,3.59-27.05,6.83-67.09-2.56-82.87,12.69,12.97,13.87,51.22,5.46,115.77h0Zm192.33-46.28h0c.84-4.42,1.47-8.8,1.58-13.12v-.36c.06-3.24-.18-6.44-.86-9.58-1.61-7.46-5.46-13.28-13.29-15.68-3.53-1.08-7.48-1.4-11.34-1.7-5.19-.41-10.44-.6-15.85-.85-1.83-8.04-5.49-17.27-12.4-24.36-.81-1.42-1.87-2.63-3.33-3.87-5.23-4.46-11.72-7.19-18.38-9.65-11.21-4.14-22.94-7.24-35.08-9.37-11.94-2.09-24.03-3.81-36.17-5.37-7.49-.96-15.18-1.35-22.8-1.93-9.29-.7-38.07,1.79-28.37.91-104.86,9.47-240.73,23.2-240.73,23.2,0,0-10.57.57-15.88,1.29-.01.1-.04.3-.04.3,0,0,221.15-15.48,244.26-15.7,18.92-.18,32.03,13.17,35.09,56.09.94,13.07-2.46,59.2-7.06,78.42-2,8.37-3.27,16.79-5.04,25.21-.3,1.45.14,2.1,1.29,2.66,3.78,1.79,7.47,3.72,11.26,5.5,19.64,9.23,39.88,16.83,62.53,20.37,9.48,1.48,19.08,2.23,29.25.21,12.02-2.39,22.84-6.71,31.82-15.83.66-.67,1.18-1.67,1.34-2.52.74-4.13,1.38-8.25,1.97-12.37.59-4.2,1.08-8.38,1.62-12.61-1.65.49-3.15,1.01-4.68,1.36-9.4,2.16-18.7,2.49-27.98,2.71-13.5.32-26.85-.24-40.12-1.29-11.87-.93-23.62-2.24-35.02-4.66-6.1-1.29-12.11-2.76-17.29-5.78-1.16-.67-1.45-1.5-1.2-2.92,1.59-8.99,3.45-17.98,4.46-26.88,1.17-10.31,2-20.6,2.16-30.72.19-12.91-.39-25.65-.7-38.38-.02-.69-.05-1.37-.09-2.05-.15-.85-.3-1.74-.46-2.7-3.01-18.69-.94-20.33.23-20.04.39-.31.85-.54,1.35-.69,2.1-.63,4.32-1.2,6.39-1.23,6.95-.1,13.86-.01,20.74.12,12.62.25,24.96,1.49,37.13,3.19,25.14,3.52,55.31,1.36,60.8,46.25.4,3.24,1.17-.4.65-7.03,2.04-.18,4.09-.48,6.12-.56,4.02-.15,8.17-.6,11.99-.08,8.55,1.16,11.36,7.24,10.88,12.6l9.26,19.49Z"></path>
      <path class="cls-2" d="m480.21,206.72c10.87-22.16,3.62-41.1-13.18-46.19-6.47-1.96-13.44-2.23-20.22-.62,5.38-2.15,11-3.34,16.6-3.35,22.01-.04,34.06,18,27.99,41.22-6.06,23.18-27.87,42.23-49.13,42.95-4.21.14-8.12-.46-11.65-1.69,16.24,3.54,39.44-11.63,49.59-32.32h0Z"></path>
      <path class="cls-1" d="m505.88,35.49l-8.67,16.44c-1.27,2.29-3.09,4.27-5.47,5.95-2.38,1.68-4.68,2.58-6.88,2.7l-39.67,2.11c-1.87.1-3.96.6-6.26,1.5-2.84,1.16-4.25,2.56-4.2,4.23.04,1.89,2.05,2.73,6.03,2.51l39.69-2.12c3.08-.16,7.42.49,7.42.49,0,0-3.08,5.83-3.92,7.32l-17.39,32.95c-1.27,2.3-3.1,4.29-5.49,5.98-2.39,1.69-4.69,2.59-6.89,2.71l-39.76,2.17c-3.1.17-4.68-1.08-4.74-3.75-.03-1.22.38-2.58,1.23-4.08l13.19-24.76c.73-1.49,1.09-2.84,1.06-4.07-.07-2.67-1.59-3.92-4.56-3.76-2.2.12-4.5,1.03-6.9,2.71-2.39,1.69-4.22,3.68-5.49,5.98l-13.2,24.77c-1.17,2.29-2.97,4.28-5.43,5.97-2.45,1.69-4.79,2.6-7.01,2.72l-39.91,2.18c-3,.16-7.56.12-7.56.12,0,0,3.29-6.47,4.04-7.97l17.73-33.08c1.17-2.29,4.65-8.29,4.65-8.29,0,0,5.58-.28,7.79-.4l39.65-2.12c1.88-.1,3.97-.6,6.27-1.5,2.85-1.15,4.25-2.56,4.21-4.23-.05-1.89-2.06-2.73-6.03-2.52l-39.8,2.12c-3.1.17-4.68-1.08-4.75-3.75-.03-1.22.38-2.58,1.23-4.07l8.76-16.49c1.16-2.28,3.93-8.58,3.93-8.58,0,0,6.27.03,8.48-.08l39.76-2.08c2.98-.16,8.35-.13,8.35-.13,0,0-4.12,6.46-4.85,7.95l-4.44,8.23c-.74,1.48-1.1,2.84-1.06,4.06.06,2.66,1.64,3.91,4.73,3.75,2.1-.11,4.37-1.01,6.82-2.69,2.44-1.68,4.25-3.67,5.41-5.95l4.43-8.23c1.16-2.28,4.76-8.1,4.76-8.1,0,0,5.4-.43,7.6-.55l39.61-2.07c2.97-.16,7.42-.15,7.42-.15,0,0-3.19,6.47-3.92,7.95h0Zm-229.23,52.23c-2.23.12-4.55,1.03-6.96,2.72-2.41,1.7-4.21,3.69-5.39,5.99l-9.01,16.58c-.75,1.49-1.1,2.86-1.08,4.09.06,2.68,1.59,3.94,4.6,3.78,2.23-.12,4.58-1.03,7.06-2.73,2.48-1.69,4.3-3.7,5.48-5.99l8.95-16.6c.77-1.49,1.13-2.84,1.11-4.07-.06-2.67-1.65-3.92-4.76-3.75h0Zm86.15-44.7h0c.74-1.48,4.56-8.01,4.56-8.01,0,0-5.08.03-8.07.18l-111.89,5.86c-2.23.11-8.16.34-8.16.34,0,0-3.19,6.05-4.37,8.35l-9.02,16.55c-.75,1.49-1.11,2.85-1.09,4.08.06,2.68,1.65,3.94,4.77,3.77l40.19-2.14c2.12-.11,4.42-1.01,6.89-2.68,2.47-1.68,4.3-3.65,5.48-5.93l4.47-8.28c1.27-2.31,3.1-4.33,5.48-6.02,2.39-1.7,4.68-2.61,6.88-2.73,2.99-.16,4.52,1.12,4.58,3.81.03,1.24-.29,2.6-.96,4.1l-8.86,16.48c-1.29,2.29-3.15,4.28-5.57,5.97-2.42,1.69-4.75,2.59-6.99,2.71l-56.11,2.99c-2.23.12-4.56,1.02-6.97,2.72-2.42,1.7-4.28,3.7-5.57,6l-17.92,33.2c-.75,1.5-4.57,8.06-4.57,8.06,0,0,5.13-.03,8.26-.2l112.3-6.12c2.11-.11,4.39-1.02,6.86-2.72,2.46-1.7,4.28-3.69,5.45-5.99l39.92-74.37h0ZM242.8,8.3l-82.26,153.43s-18.73-28.4-26.57-40.28c-4.52-6.85-1.13-9.72,2.6-16.17,8.58-14.81,41.53-75.65,41.53-75.65.74-1.46,1.1-2.8,1.07-4-.05-2.63-1.62-3.86-4.68-3.7-2.19.11-4.47,1-6.86,2.66-2.38,1.66-4.15,3.62-5.31,5.88l-30.07,54.81c-1.28,2.26-3.11,4.23-5.51,5.9-2.39,1.67-4.69,2.56-6.89,2.68l-47.84,2.29,34.74-62.77c.87-1.47,1.29-2.81,1.27-4.01-.05-2.63-1.62-3.86-4.69-3.7-2.2.11-4.5,1-6.88,2.67-2.4,1.66-4.23,3.63-5.51,5.89l-30.11,54.92c-1.28,2.27-3.13,4.24-5.53,5.92-2.4,1.67-4.71,2.57-6.91,2.69l-39.8,2.16c-3.1.17-8.59.57-8.59.57L45.13,18.67c1.53-4.46-3.85-8.25-1.64-8.37L239.35.6c3.06-.16,4.62,1.07,4.67,3.69.03,1.21-.38,2.54-1.23,4h0Z"></path>
      <path class="cls-2" d="m435.82,170.47l-7.72,13.43c-1.03,1.87-2.6,3.48-4.7,4.85-2.1,1.37-4.09,2.11-5.96,2.2l-33.61,1.68c-2.52.13-3.78-.89-3.79-3.05,0-1,.32-2.1.97-3.3l3.9-6.71c.65-1.2.97-2.3.97-3.3,0-2.17-1.32-3.19-3.93-3.06-1.77.1-3.71.83-5.8,2.2-2.1,1.37-3.65,2.98-4.67,4.84l-7.77,13.39c-.64,1.21-.96,2.3-.96,3.3,0,2.17,1.32,3.18,3.92,3.06l47-2.35c2.52-.13,3.79.89,3.79,3.06,0,.99-.33,2.1-.98,3.29l-15.5,26.72c-1.02,1.85-2.58,3.45-4.67,4.81-2.09,1.36-4.07,2.09-5.93,2.17l-93.41,4.5c-2.49.12-6.4.07-6.4.07,0,0,2.94-5.18,3.58-6.38l7.53-13.27c1.1-1.85,2.66-3.45,4.69-4.8,2.02-1.36,3.96-2.08,5.81-2.17l33.36-1.65c2.6-.12,3.91.89,3.92,3.05,0,.98-.37,2.08-1.1,3.29l-3.73,6.65c-.74,1.2-1.1,2.3-1.1,3.29.01,2.15,1.3,3.17,3.89,3.04,1.84-.09,3.78-.81,5.8-2.18,2.02-1.37,3.58-2.98,4.69-4.84l7.63-13.31c.78-1.2,1.17-2.3,1.17-3.28,0-2.15-1.31-3.16-3.92-3.03l-46.77,2.32c-2.6.12-3.9-.88-3.91-3.04,0-.98.35-2.08,1.09-3.29l15.15-26.7c1.1-1.86,4.71-4.85,4.71-4.85,0,0,3.99-2.1,5.85-2.19l94.12-4.84c2.62-.13,3.93.89,3.94,3.06,0,1-.37,2.11-1.13,3.32h0Zm-115.54,6.26c.74-1.21,1.1-2.31,1.1-3.3-.02-2.16-1.32-3.19-3.92-3.05l-33.36,1.71c-1.85.09-3.79.82-5.81,2.19-2.02,1.36-3.58,2.97-4.68,4.83l-30.09,53.16c-1.09,1.84-2.64,3.43-4.64,4.78-2.01,1.35-3.93,2.07-5.77,2.15-2.57.13-3.86-.88-3.89-3.02,0-.98.36-2.07,1.09-3.27l30.03-53.13c.71-1.21,1.06-2.31,1.05-3.3-.02-2.16-1.32-3.18-3.91-3.04l-33.19,1.7c-1.84.1-3.76.82-5.77,2.18-2.01,1.36-3.56,2.97-4.64,4.82l-33.53,59.61c-.62,1.19-3.34,6.34-3.34,6.34,0,0,3.7.05,6.17-.07l92.49-4.45c1.84-.09,3.8-.81,5.86-2.16,2.06-1.35,3.6-2.94,4.6-4.79l34.17-59.92h0Zm-168.34,9.03c-1.74.09-3.62.81-5.66,2.17-2.04,1.36-3.54,2.96-4.52,4.8l-25.82,46.22c-.72,1.18-1.08,2.27-1.06,3.24.04,2.13,1.32,3.14,3.87,3.01,1.82-.09,3.72-.8,5.7-2.14,1.98-1.34,3.51-2.93,4.57-4.76l25.88-46.24c.62-1.2.93-2.28.92-3.27-.03-2.15-1.33-3.15-3.88-3.02h0Zm52.79-2.69l-33.5,59.59c-.98,1.83-2.49,3.41-4.52,4.75-2.04,1.35-3.97,2.06-5.79,2.15l-91.56,4.4c-2.44.12-6.72.07-6.72.07,0,0,3.27-5.13,3.88-6.31l61.48-110.76c1.33-2.41,3.57-6.19,3.57-6.19,0,0,2.24,2.78,2.71,3.56l18.71,29.46c.56.87.85,2.06.88,3.59.03,2.24-.49,4.33-1.57,6.27-.44.92-.66,1.78-.65,2.59.03,2.06,1.37,3.02,4.02,2.88l46.22-2.37c2.57-.14,3.87.88,3.9,3.03.01.98-.34,2.08-1.06,3.28h0Z"></path>
      <path class="cls-2" d="m188.01,148.15l9.75-.36-2.1,12.57-2.52.09,1.75-10.47-4.71.18-1.75,10.47-2.52.09,2.1-12.57h0Zm18.15,9.06l.5,2.74,2.4-.09-2.46-12.4-2.84.11-6.47,12.73,2.62-.1,1.39-2.81,4.87-.18h0Zm-.39-2.08l-3.43.13,2.52-5.12.91,4.99Z"></path>
      <path class="cls-2" d="m218.44,155.03l2.55.29c-.44,1.43-1.14,2.52-2.11,3.29-.97.79-2.12,1.2-3.44,1.24-1.51.06-2.69-.35-3.56-1.25-.87-.89-1.35-2.22-1.42-3.96-.05-1.43.19-2.73.71-3.93.52-1.21,1.26-2.12,2.25-2.79.97-.66,2.06-1.02,3.24-1.06,1.32-.05,2.41.28,3.26.96.85.7,1.37,1.66,1.55,2.91l-2.41.33c-.16-.73-.44-1.24-.83-1.56-.39-.32-.91-.45-1.54-.43-.69.03-1.33.26-1.91.72-.58.46-1.04,1.16-1.36,2.09-.33.92-.48,1.85-.44,2.77.04.99.31,1.77.79,2.29.48.52,1.09.78,1.78.75.65-.02,1.24-.26,1.76-.71.53-.46.92-1.12,1.14-1.96Z"></path>
      <path class="cls-2" d="m229.63,156.34l-4.87.18-1.39,2.81-2.62.1,6.47-12.73,2.84-.11,2.46,12.4-2.4.09-.5-2.74h0Zm-.39-2.08l-.91-4.99-2.52,5.12,3.43-.13h0Zm12.41-8.1l2.5-.09-.9,5.32c.41-.02.75-.18.99-.49.26-.31.7-1.07,1.34-2.28.38-.75.71-1.28.95-1.61.26-.32.61-.6,1.07-.82.47-.23,1.05-.35,1.75-.38.31-.01.62,0,.95.03l-.34,1.88c-.27,0-.48-.02-.62-.01-.5.02-.85.14-1.05.35-.2.23-.5.77-.9,1.64-.63,1.37-1.34,2.18-2.17,2.44.75.25,1.31.98,1.68,2.21l1.3,4.07-2.55.09-1.09-3.5c-.24-.79-.48-1.29-.73-1.51-.27-.22-.54-.33-.87-.32l-.91,5.46-2.5.09.91-5.46c-.27.01-.53.11-.76.27-.23.18-.45.42-.64.7l-.45.7-.13.18-2.35,3.73-3.02.11,2.98-4.65c.68-1.05,1.48-1.71,2.41-1.94-.35-.14-.62-.43-.84-.82-.22-.41-.42-1.07-.59-1.97-.13-.64-.26-1.04-.41-1.19-.14-.15-.42-.21-.85-.2-.14,0-.34.03-.63.06l.31-1.9c.27-.06.53-.09.79-.1.62-.02,1.08.06,1.4.26.32.2.58.48.81.88.2.39.43.98.65,1.77.3,1.09.53,1.74.68,1.98.16.24.41.33.77.32.05,0,.1,0,.19,0l.88-5.32h0Zm10.4-.39l-2.1,12.57,2.33-.09,6.39-8.07-1.32,7.88,2.38-.09,2.07-12.57-2.36.09-6.34,7.98,1.3-7.8-2.35.09h0Zm12.72,12.02l-2.52.09,2.1-12.57,4.99-.19c.87-.03,1.58.05,2.1.24.52.19.95.54,1.27,1.02.31.48.49,1.06.51,1.74.02.63-.07,1.24-.29,1.84-.22.6-.49,1.1-.82,1.46-.35.38-.71.65-1.1.86-.39.19-.93.35-1.61.48-.39.07-1.13.13-2.21.17l-1.63.06-.8,4.79h0Zm1.15-6.9l.79-.03c1.32-.05,2.21-.17,2.65-.36.44-.17.79-.47,1.03-.84.24-.38.35-.8.33-1.23-.01-.31-.09-.56-.22-.74-.14-.19-.34-.32-.58-.4-.23-.08-.76-.09-1.58-.06l-1.82.07-.6,3.6h0Zm16.47,1.76l2.55.29c-.44,1.43-1.14,2.52-2.11,3.29-.97.79-2.12,1.2-3.44,1.24-1.51.06-2.69-.35-3.56-1.25-.87-.89-1.35-2.22-1.42-3.96-.05-1.43.19-2.73.71-3.93.52-1.21,1.26-2.12,2.25-2.79.97-.66,2.05-1.02,3.24-1.06,1.32-.05,2.41.28,3.26.96.85.7,1.37,1.66,1.55,2.91l-2.41.33c-.16-.73-.44-1.24-.83-1.56-.39-.32-.91-.45-1.54-.43-.69.03-1.33.26-1.91.72-.58.46-1.04,1.16-1.36,2.09-.33.92-.48,1.85-.44,2.77.04.99.31,1.77.79,2.29.48.52,1.09.78,1.78.75.65-.02,1.24-.26,1.76-.71.53-.46.92-1.12,1.14-1.96h0Zm5.75-8.22l2.48-.09-.78,4.78,2-.07c1.32-.05,2.3.04,2.96.24.68.22,1.19.58,1.52,1.13.35.55.53,1.22.56,2,.05,1.27-.34,2.32-1.19,3.1-.85.78-2.07,1.21-3.64,1.27l-6.01.22,2.1-12.57h0Zm.77,10.42l2.52-.09c1.3-.05,2.12-.29,2.46-.72.36-.43.52-.89.5-1.36-.01-.38-.13-.71-.35-.98-.23-.27-.51-.43-.86-.51-.35-.09-.9-.11-1.65-.08l-2.02.08-.6,3.67h0Zm11.4-10.88l2.48-.09-.88,5.34c.48-.02.84-.14,1.1-.34.25-.22.64-.83,1.17-1.81.54-1.05.98-1.78,1.29-2.18.29-.41.66-.71,1.05-.89.4-.19,1.02-.3,1.84-.33l.67-.02-.48,1.88-.41.02c-.31.01-.55.07-.71.18-.15.11-.33.36-.54.77-.6,1.26-1.1,2.12-1.48,2.57-.39.45-.81.75-1.27.87.85.25,1.43.98,1.76,2.19.02.07.04.14.04.21l1.26,3.88-2.59.1-1.19-3.83s-.11-.31-.32-.81c-.24-.46-.75-.69-1.48-.68l-.93,5.46-2.48.09,2.1-12.57h0Zm8.32,12.18l2.52-.09,2.1-12.57-2.52.09-2.1,12.57h0Zm11.75-12.93l9.75-.36-2.1,12.57-2.52.09,1.75-10.47-4.71.18-1.75,10.47-2.52.09,2.1-12.57h0Zm10.2,12.11l9.58-.36.35-2.11-7.13.27.61-3.41,6.37-.24.35-2.11-6.36.24.49-2.85,6.56-.24.35-2.11-9.08.34-2.1,12.57h0Zm13.95-.52l-2.52.09,2.1-12.57,4.99-.19c.87-.03,1.58.05,2.1.24.52.19.95.54,1.27,1.02.31.48.49,1.06.51,1.74.02.63-.07,1.24-.29,1.84-.22.6-.49,1.1-.82,1.46-.35.38-.71.65-1.1.86-.39.19-.93.35-1.61.48-.39.07-1.13.13-2.21.17l-1.63.06-.8,4.79h0Zm1.15-6.9l.79-.03c1.32-.05,2.21-.17,2.65-.36.44-.17.79-.47,1.03-.84.24-.38.35-.8.33-1.23-.01-.31-.09-.56-.22-.74-.14-.19-.34-.32-.58-.4-.23-.08-.76-.09-1.58-.06l-1.82.07-.6,3.6h0Zm7.76,6.57l9.58-.36.35-2.11-7.13.27.61-3.41,6.37-.24.35-2.11-6.36.24.49-2.85,6.56-.24.35-2.11-9.08.34-2.1,12.57h0Zm11.41-.42l2.1-12.57,4.2-.16c.91-.03,1.54-.02,1.92.02.6.06,1.12.2,1.54.45.44.25.76.57,1,.99.24.41.36.88.38,1.4.03.7-.14,1.3-.5,1.82-.36.52-.93.92-1.72,1.22.64.15,1.15.45,1.51.89.38.44.57.94.59,1.51.03.75-.15,1.47-.55,2.15-.39.69-.95,1.2-1.68,1.53-.73.31-1.73.5-3,.55l-5.79.22h0Zm3.78-7.59l1.92-.07c.87-.03,1.49-.13,1.86-.26.39-.14.66-.36.83-.64.2-.29.27-.59.26-.92-.01-.31-.11-.57-.3-.77-.18-.19-.44-.32-.77-.37-.19-.03-.64-.03-1.34,0l-1.97.07-.49,2.97h0Zm-.93,5.48l2.45-.09c1.01-.04,1.69-.13,2.05-.29.34-.13.6-.37.82-.68.19-.32.28-.66.27-.99-.02-.42-.18-.74-.48-1.01-.32-.25-.82-.37-1.52-.34l-3.03.11-.55,3.28h0Zm9.53,1.65l2.1-12.57,9.08-.34-.35,2.11-6.56.24-.49,2.85,6.36-.24-.35,2.11-6.37.24-.61,3.41,7.13-.27-.35,2.11-9.58.36Z"></path>
      <path class="cls-2" d="m392.15,143.96l-2.42-.47c.34-1.11.91-1.92,1.71-2.42.82-.52,1.72-.78,2.7-.82,1.15-.04,2.15.22,3.03.79.86.58,1.32,1.36,1.36,2.36.03.68-.16,1.31-.56,1.91-.41.57-1.04,1.02-1.94,1.31.63.26,1.1.6,1.43,1.05.33.44.5.96.52,1.57.04,1.03-.37,1.93-1.25,2.73-.88.78-2.1,1.21-3.68,1.27-2.66.1-4.25-.87-4.78-2.91l2.4-.86c.1.48.36.89.75,1.21.39.33.91.49,1.53.47.7-.03,1.3-.22,1.78-.57.48-.35.71-.85.68-1.46-.02-.51-.24-.9-.64-1.16-.42-.28-.94-.4-1.56-.38-.17,0-.36.03-.56.06l.36-2.16c.31.04.6.06.88.05.62-.02,1.12-.22,1.49-.58.38-.36.55-.77.54-1.24-.02-.44-.2-.76-.53-.99-.33-.23-.73-.34-1.18-.32-1.11.04-1.8.56-2.05,1.56h0Zm7.32,8.82l2.1-12.57,9.08-.34-.35,2.11-6.56.24-.49,2.85,6.36-.24-.35,2.11-6.37.24-.61,3.41,7.13-.27-.35,2.11-9.58.36h0Zm19.67-6.32l-.94,5.62,2.52-.09,2.1-12.57-2.52.09-.81,4.85-4.76.18.81-4.85-2.52.09-2.1,12.57,2.52-.09.94-5.62,4.76-.18h0Zm12.37-.46l-4.76.18-.94,5.62-2.52.09,2.1-12.57,2.52-.09-.81,4.85,4.76-.18.81-4.85,2.52-.09-2.1,12.57-2.52.09.94-5.62h0Zm16.21-7.51l-6.13.23c-1.56.06-2.71.48-3.49,1.32-.78.81-1.15,1.75-1.11,2.82.03.73.26,1.37.69,1.93.42.54,1.06.89,1.91.99-.49.18-1.07.69-1.71,1.51l-3.27,4.19,3.14-.12,2.9-3.72c.52-.66.97-1.12,1.37-1.34.39-.22.95-.35,1.68-.38h.29s-.88,5.24-.88,5.24l2.48-.09,2.13-12.57h0Zm-2.87,2.2l-.53,3.21-2.5.09c-.94.04-1.57-.1-1.87-.38-.29-.29-.44-.63-.45-1.01-.02-.59.2-1.04.65-1.32.45-.3,1.36-.47,2.73-.52l1.97-.07Z"></path>
    </g>
  </g>
</svg>
